<?xml version="1.0" encoding="UTF-8"?>
<svg version="1.1" xmlns="http://www.w3.org/2000/svg" width="74" height="73">
<path d="M0 0 C0.89589844 -0.01417969 1.79179687 -0.02835937 2.71484375 -0.04296875 C5.0625 0.1875 5.0625 0.1875 7.0625 2.1875 C7.33241906 4.87589385 7.14987357 7.47891936 7.0625 10.1875 C9.01249129 9.99278889 9.01249129 9.99278889 11.0625 9.1875 C12.15416275 7.25419397 12.15416275 7.25419397 13.0625 5.1875 C17.08431615 2.50628924 20.33486391 2.37405665 25.0625 3.1875 C28.1342718 4.89827974 30.46735654 6.99721307 32.0625 10.1875 C32.41567777 15.573461 32.48587524 18.78601755 29.0625 23.1875 C27.76670353 24.55734198 26.44257251 25.9026049 25.0625 27.1875 C26.34125 27.31125 27.62 27.435 28.9375 27.5625 C32.8125 27.9375 32.8125 27.9375 35.0625 30.1875 C35.63962545 37.45928067 35.63962545 37.45928067 33.79052734 39.79248047 C31.68507233 41.49219366 30.72197191 41.54072117 28.05078125 41.48046875 C27.36798096 41.47297607 26.68518066 41.4654834 25.98168945 41.45776367 C25.12148193 41.43045166 24.26127441 41.40313965 23.375 41.375 C20.631875 41.313125 17.88875 41.25125 15.0625 41.1875 C15.0625 47.1275 15.0625 53.0675 15.0625 59.1875 C8.4625 59.1875 1.8625 59.1875 -4.9375 59.1875 C-6.21427138 55.35718587 -5.7999174 51.95252516 -5.5 48 C-5.314375 45.421875 -5.12875 42.84375 -4.9375 40.1875 C-11.2075 40.1875 -17.4775 40.1875 -23.9375 40.1875 C-23.96433436 36.87494674 -23.9842578 33.56260817 -24 30.25 C-24.00837891 29.30447266 -24.01675781 28.35894531 -24.02539062 27.38476562 C-24.02861328 26.48564453 -24.03183594 25.58652344 -24.03515625 24.66015625 C-24.04039307 23.82750244 -24.04562988 22.99484863 -24.05102539 22.13696289 C-23.9375 20.1875 -23.9375 20.1875 -22.9375 19.1875 C-20.07482433 19.11424832 -17.236781 19.09511795 -14.375 19.125 C-13.56869141 19.12951172 -12.76238281 19.13402344 -11.93164062 19.13867188 C-9.93356244 19.15049482 -7.93552217 19.16843086 -5.9375 19.1875 C-5.94910156 17.89972656 -5.96070312 16.61195312 -5.97265625 15.28515625 C-5.9820327 13.60677228 -5.99113305 11.92838674 -6 10.25 C-6.00837891 9.39986328 -6.01675781 8.54972656 -6.02539062 7.67382812 C-6.03022461 6.46049805 -6.03022461 6.46049805 -6.03515625 5.22265625 C-6.04301147 4.09935913 -6.04301147 4.09935913 -6.05102539 2.95336914 C-5.8107073 -0.78474004 -3.13697012 0.02250337 0 0 Z M7.0625 13.1875 C7.00802953 14.60373216 6.96949492 16.02058191 6.9375 17.4375 C6.91429688 18.22640625 6.89109375 19.0153125 6.8671875 19.828125 C7.0796622 22.39481941 7.77595895 23.9791067 9.0625 26.1875 C10.0525 26.1875 11.0425 26.1875 12.0625 26.1875 C12.0625 26.8475 12.0625 27.5075 12.0625 28.1875 C14.3725 28.1875 16.6825 28.1875 19.0625 28.1875 C18.32 27.465625 17.5775 26.74375 16.8125 26 C9.69485294 18.72058824 9.69485294 18.72058824 9.0625 13.1875 C8.4025 13.1875 7.7425 13.1875 7.0625 13.1875 Z M22.0625 26.1875 C23.0625 28.1875 23.0625 28.1875 23.0625 28.1875 Z " fill="#1BC0D1" transform="translate(27.9375,3.8125)"/>
<path d="M0 0 C0.33 0 0.66 0 1 0 C1.04898437 1.26714844 1.09796875 2.53429688 1.1484375 3.83984375 C1.22354191 5.53908096 1.29908632 7.23829876 1.375 8.9375 C1.4059375 9.76830078 1.436875 10.59910156 1.46875 11.45507812 C1.97149491 23.27700304 1.97149491 23.27700304 8 33 C14.50606783 37.74767112 21.6543958 38.32396132 29.4375 38.625 C30.26443359 38.66367187 31.09136719 38.70234375 31.94335938 38.7421875 C33.96191073 38.83553092 35.98092331 38.91880961 38 39 C38 39.33 38 39.66 38 40 C32.39 40 26.78 40 21 40 C21 45.94 21 51.88 21 58 C14.4 58 7.8 58 1 58 C-0.27677138 54.16968587 0.1375826 50.76502516 0.4375 46.8125 C0.623125 44.234375 0.80875 41.65625 1 39 C-5.27 39 -11.54 39 -18 39 C-18.02683436 35.68744674 -18.0467578 32.37510817 -18.0625 29.0625 C-18.07087891 28.11697266 -18.07925781 27.17144531 -18.08789062 26.19726562 C-18.09111328 25.29814453 -18.09433594 24.39902344 -18.09765625 23.47265625 C-18.10289307 22.64000244 -18.10812988 21.80734863 -18.11352539 20.94946289 C-18 19 -18 19 -17 18 C-14.13530675 17.92669669 -11.30106326 17.90782169 -8.4375 17.9375 C-5.653125 17.958125 -2.86875 17.97875 0 18 C0 12.06 0 6.12 0 0 Z " fill="#1D375F" transform="translate(22,5)"/>
<path d="M0 0 C0.33 0 0.66 0 1 0 C1.04898437 1.26714844 1.09796875 2.53429688 1.1484375 3.83984375 C1.22354191 5.53908096 1.29908632 7.23829876 1.375 8.9375 C1.4059375 9.76830078 1.436875 10.59910156 1.46875 11.45507812 C1.97149491 23.27700304 1.97149491 23.27700304 8 33 C11.74326146 35.73156917 15.53250954 36.86122792 20 38 C20 38.33 20 38.66 20 39 C18.1128125 38.814375 18.1128125 38.814375 16.1875 38.625 C15.47980469 38.55539063 14.77210937 38.48578125 14.04296875 38.4140625 C12 38 12 38 9 36 C8.01 36 7.02 36 6 36 C5.34 37.98 4.68 39.96 4 42 C2 39 2 39 2 36 C-3.94 36 -9.88 36 -16 36 C-16 30.39 -16 24.78 -16 19 C-11.05 18.67 -6.1 18.34 -1 18 C-0.505 9.09 -0.505 9.09 0 0 Z " fill="#1B3B5F" transform="translate(22,5)"/>
<path d="M0 0 C7.39495798 -0.3697479 7.39495798 -0.3697479 10.25 1.375 C10.8275 1.91125 11.405 2.4475 12 3 C13.31836295 3.69580267 14.64791086 4.37224433 16 5 C16 7.31 16 9.62 16 12 C15.34 12 14.68 12 14 12 C14 12.66 14 13.32 14 14 C13.34 14 12.68 14 12 14 C11.731875 14.78375 11.46375 15.5675 11.1875 16.375 C10 19 10 19 7 21 C4.6875 21.5625 4.6875 21.5625 2 21 C-1.2010973 18.51612969 -3.69123518 15.83030694 -4.37890625 11.75390625 C-4.375 9.5625 -4.375 9.5625 -4 6 C-3.34 6 -2.68 6 -2 6 C-1.34 4.02 -0.68 2.04 0 0 Z " fill="#10C5D8" transform="translate(43,9)"/>
<path d="M0 0 C1.62463842 -0.05395478 3.24978541 -0.09277195 4.875 -0.125 C5.77992187 -0.14820313 6.68484375 -0.17140625 7.6171875 -0.1953125 C10 0 10 0 12 2 C12.26991906 4.68839385 12.08737357 7.29141936 12 10 C13.94999129 9.80528889 13.94999129 9.80528889 16 9 C17.09166275 7.06669397 17.09166275 7.06669397 18 5 C22.01406832 2.32395446 25.28017257 2.17322751 30 3 C32.45141166 4.42999014 33.99315064 5.94169297 36 8 C35.67 8.66 35.34 9.32 35 10 C29.125 7.125 29.125 7.125 28 6 C25.32941149 5.85884839 22.67567762 5.95752893 20 6 C19.34 7.65 18.68 9.3 18 11 C17.34 11 16.68 11 16 11 C16.38728235 16.71241466 16.87010523 19.73688282 21 24 C17.64189605 22.61043975 15.81413448 21.17473533 14 18 C13.8125 15.25 13.8125 15.25 14 13 C13.34 13 12.68 13 12 13 C12.14230808 14.41702513 12.28900746 15.8336096 12.4375 17.25 C12.55931641 18.43335938 12.55931641 18.43335938 12.68359375 19.640625 C12.97634993 21.82364639 13.42064419 23.8773182 14 26 C14.99 26 15.98 26 17 26 C16.67 26.66 16.34 27.32 16 28 C14.68 28 13.36 28 12 28 C12 26.68 12 25.36 12 24 C11.34 24 10.68 24 10 24 C9.67 17.07 9.34 10.14 9 3 C6.69 3 4.38 3 2 3 C2 9.93 2 16.86 2 24 C2.66 24 3.32 24 4 24 C4.12375 25.134375 4.2475 26.26875 4.375 27.4375 C4.684375 29.2009375 4.684375 29.2009375 5 31 C5.66 31.33 6.32 31.66 7 32 C6.01 32 5.02 32 4 32 C-1.02189136 25.62606096 -0.13458079 17.26405479 -0.0625 9.5625 C-0.05798828 8.64017578 -0.05347656 7.71785156 -0.04882812 6.76757812 C-0.03713938 4.51164952 -0.02075455 2.25586033 0 0 Z " fill="#2DABBB" transform="translate(23,4)"/>
<path d="M0 0 C1.48831242 0.00667405 2.97660807 0.01863442 4.46484375 0.03515625 C5.22345703 0.03966797 5.98207031 0.04417969 6.76367188 0.04882812 C8.64326246 0.06064945 10.52281274 0.07858547 12.40234375 0.09765625 C12.40234375 0.42765625 12.40234375 0.75765625 12.40234375 1.09765625 C7.45234375 1.09765625 2.50234375 1.09765625 -2.59765625 1.09765625 C-2.59765625 6.70765625 -2.59765625 12.31765625 -2.59765625 18.09765625 C3.34234375 18.09765625 9.28234375 18.09765625 15.40234375 18.09765625 C15.40234375 25.02765625 15.40234375 31.95765625 15.40234375 39.09765625 C21.34234375 39.09765625 27.28234375 39.09765625 33.40234375 39.09765625 C33.40234375 33.15765625 33.40234375 27.21765625 33.40234375 21.09765625 C39.34234375 21.09765625 45.28234375 21.09765625 51.40234375 21.09765625 C51.40234375 21.42765625 51.40234375 21.75765625 51.40234375 22.09765625 C45.79234375 22.09765625 40.18234375 22.09765625 34.40234375 22.09765625 C34.40234375 28.03765625 34.40234375 33.97765625 34.40234375 40.09765625 C27.80234375 40.09765625 21.20234375 40.09765625 14.40234375 40.09765625 C13.12557237 36.26734212 13.53992635 32.86268141 13.83984375 28.91015625 C14.02546875 26.33203125 14.21109375 23.75390625 14.40234375 21.09765625 C8.13234375 21.09765625 1.86234375 21.09765625 -4.59765625 21.09765625 C-4.62449061 17.78510299 -4.64441405 14.47276442 -4.66015625 11.16015625 C-4.66853516 10.21462891 -4.67691406 9.26910156 -4.68554688 8.29492188 C-4.68876953 7.39580078 -4.69199219 6.49667969 -4.6953125 5.5703125 C-4.70054932 4.73765869 -4.70578613 3.90500488 -4.71118164 3.04711914 C-4.50650462 -0.46760339 -3.651354 0.09911384 0 0 Z " fill="#121E2E" transform="translate(8.59765625,22.90234375)"/>
<path d="M0 0 C4.47915328 -0.02886338 8.95828291 -0.04675187 13.4375 -0.0625 C14.71689453 -0.07087891 15.99628906 -0.07925781 17.31445312 -0.08789062 C19.13686523 -0.09272461 19.13686523 -0.09272461 20.99609375 -0.09765625 C22.12200928 -0.10289307 23.2479248 -0.10812988 24.40795898 -0.11352539 C27 0 27 0 28 1 C28.04063832 2.66617115 28.042721 4.33388095 28 6 C5.83862549 6.31709439 5.83862549 6.31709439 0 3 C0 2.01 0 1.02 0 0 Z " fill="#0BC8DB" transform="translate(31,35)"/>
<path d="M0 0 C1.98 0 3.96 0 6 0 C7.13525473 6.55924957 7.65250205 13.49014343 6 20 C3.94921875 21.3515625 3.94921875 21.3515625 2 22 C2 21.34 2 20.68 2 20 C1.34 20 0.68 20 0 20 C0 13.4 0 6.8 0 0 Z " fill="#0DC7DB" transform="translate(26,7)"/>
<path d="M0 0 C0.33 0 0.66 0 1 0 C1 2.64 1 5.28 1 8 C2.94999129 7.80528889 2.94999129 7.80528889 5 7 C6.09166275 5.06669397 6.09166275 5.06669397 7 3 C11.01406832 0.32395446 14.28017257 0.17322751 19 1 C21.45141166 2.42999014 22.99315064 3.94169297 25 6 C24.67 6.66 24.34 7.32 24 8 C18.125 5.125 18.125 5.125 17 4 C14.32941149 3.85884839 11.67567762 3.95752893 9 4 C8.34 5.65 7.68 7.3 7 9 C6.34 9 5.68 9 5 9 C5.38728235 14.71241466 5.87010523 17.73688282 10 22 C6.64189605 20.61043975 4.81413448 19.17473533 3 16 C2.8125 13.25 2.8125 13.25 3 11 C2.34 11 1.68 11 1 11 C1 13.97 1 16.94 1 20 C0.67 20 0.34 20 0 20 C0 13.4 0 6.8 0 0 Z " fill="#236970" transform="translate(34,6)"/>
<path d="M0 0 C2.6735774 5.3471548 2.14157785 9.05373028 2 15 C6.62 15 11.24 15 16 15 C16 10.05 16 5.1 16 0 C16.66 0 17.32 0 18 0 C18 5.94 18 11.88 18 18 C12.06 18 6.12 18 0 18 C0 12.06 0 6.12 0 0 Z " fill="#203450" transform="translate(24,44)"/>
<path d="M0 0 C0.33 0 0.66 0 1 0 C1.27298195 5.3686451 1.41895028 8.60420678 -2 13 C-3.29579647 14.36984198 -4.61992749 15.7151049 -6 17 C-4.72125 17.12375 -3.4425 17.2475 -2.125 17.375 C1.75 17.75 1.75 17.75 4 20 C4.23046875 21.875 4.23046875 21.875 4.1875 24 C4.18105469 24.70125 4.17460938 25.4025 4.16796875 26.125 C4 28 4 28 3 30 C2.34 30 1.68 30 1 30 C0.67 29.01 0.34 28.02 0 27 C0.66 27 1.32 27 2 27 C1.67 24.69 1.34 22.38 1 20 C-5.6 19.67 -12.2 19.34 -19 19 C-19 18.67 -19 18.34 -19 18 C-18.0925 17.87625 -17.185 17.7525 -16.25 17.625 C-11.12712601 16.63983193 -8.49997167 14.8620377 -5 11 C-4.67 10.34 -4.34 9.68 -4 9 C-3.34 9 -2.68 9 -2 9 C-2 8.34 -2 7.68 -2 7 C-1.34 7 -0.68 7 0 7 C0 4.69 0 2.38 0 0 Z M-9 16 C-8 18 -8 18 -8 18 Z " fill="#2F6A72" transform="translate(59,14)"/>
<path d="M0 0 C0.73476563 0.30679688 1.46953125 0.61359375 2.2265625 0.9296875 C7.55805032 2.44193146 12.86244491 2.72892714 18.375 3.125 C20.05142578 3.25455078 20.05142578 3.25455078 21.76171875 3.38671875 C24.50737208 3.59792285 27.25335893 3.80212987 30 4 C30.33 4.99 30.66 5.98 31 7 C8.28916309 7.66148069 8.28916309 7.66148069 1.4375 1.8125 C0.963125 1.214375 0.48875 0.61625 0 0 Z " fill="#27B0C6" transform="translate(29,37)"/>
<path d="M0 0 C0.33 0 0.66 0 1 0 C1 6.6 1 13.2 1 20 C1.99 20.33 2.98 20.66 4 21 C4 21.99 4 22.98 4 24 C4.99 24 5.98 24 7 24 C6.67 24.66 6.34 25.32 6 26 C4.68 26 3.36 26 2 26 C2 24.68 2 23.36 2 22 C1.34 22 0.68 22 0 22 C0 14.74 0 7.48 0 0 Z " fill="#3496A2" transform="translate(33,6)"/>
<path d="M0 0 C2 1 4 2 6 3 C6 3.66 6 4.32 6 5 C10.455 4.505 10.455 4.505 15 4 C11.71823204 7.88950276 11.71823204 7.88950276 8.5625 8.375 C6 8 6 8 4.19921875 6.25 C3.70035156 5.5075 3.20148437 4.765 2.6875 4 C1.91986328 2.88625 1.91986328 2.88625 1.13671875 1.75 C0.57404297 0.88375 0.57404297 0.88375 0 0 Z " fill="#38AAB7" transform="translate(39,22)"/>
<path d="M0 0 C0.33 0 0.66 0 1 0 C1.27298195 5.3686451 1.41895028 8.60420678 -2 13 C-3.94003965 15.1164069 -5.43326207 16.71663103 -8 18 C-8.33 17.01 -8.66 16.02 -9 15 C-8.360625 14.38125 -7.72125 13.7625 -7.0625 13.125 C-4.96116416 11.17402388 -4.96116416 11.17402388 -4 9 C-3.34 9 -2.68 9 -2 9 C-2 8.34 -2 7.68 -2 7 C-1.34 7 -0.68 7 0 7 C0 4.69 0 2.38 0 0 Z " fill="#245A5E" transform="translate(59,14)"/>
<path d="M0 0 C1.32 0 2.64 0 4 0 C4 0.66 4 1.32 4 2 C5.98 2 7.96 2 10 2 C10 2.33 10 2.66 10 3 C4.72 3 -0.56 3 -6 3 C-6 2.67 -6 2.34 -6 2 C-4.02 1.67 -2.04 1.34 0 1 C0 0.67 0 0.34 0 0 Z " fill="#39898F" transform="translate(46,30)"/>
<path d="M0 0 C0.66 0 1.32 0 2 0 C1.67 1.65 1.34 3.3 1 5 C0.34 5 -0.32 5 -1 5 C-1 6.98 -1 8.96 -1 11 C-1.33 11 -1.66 11 -2 11 C-2.33 8.36 -2.66 5.72 -3 3 C-2.34 3 -1.68 3 -1 3 C-0.67 2.01 -0.34 1.02 0 0 Z " fill="#2E95A4" transform="translate(40,10)"/>
<path d="M0 0 C1.98 0.495 1.98 0.495 4 1 C3.67 2.65 3.34 4.3 3 6 C1.68 5.34 0.36 4.68 -1 4 C-0.67 2.68 -0.34 1.36 0 0 Z " fill="#19C0D0" transform="translate(43,9)"/>
<path d="M0 0 C2 1 2 1 2 1 Z " fill="#323232" transform="translate(53,30)"/>
</svg>
